<svg width="1190" height="221" viewBox="0 0 1190 221" fill="none" xmlns="http://www.w3.org/2000/svg">
<rect width="1190" height="219.496" fill="url(#paint0_linear_293_119)"/>
<path fill-rule="evenodd" clip-rule="evenodd" d="M331.073 0C314.993 33.4458 306 70.8315 306 110.283C306 149.429 314.854 186.541 330.701 219.789H383.589C363.648 187.543 352.163 149.683 352.163 109.184C352.163 69.2787 363.314 31.9344 382.719 0H331.073ZM419.109 0C396.084 30.5019 382.464 68.2789 382.464 109.184C382.464 150.727 396.512 189.043 420.192 219.789H469.151C438.504 192.881 419.21 153.732 419.21 110.151C419.21 66.2923 438.751 26.9219 469.739 0H419.109ZM667.509 0H718.747C741.771 30.5019 755.392 68.2789 755.392 109.184C755.392 150.727 741.344 189.043 717.664 219.789H668.096C698.743 192.881 718.037 153.732 718.037 110.151C718.037 66.2923 698.496 26.9219 667.509 0ZM529.847 0H607.401C653.804 15.7948 687.126 59.1462 687.126 110.151C687.126 160.613 654.509 203.584 608.877 219.789H528.371C482.738 203.584 450.122 160.613 450.122 110.151C450.122 59.1462 483.443 15.7948 529.847 0ZM755.137 0H806.309C822.389 33.4458 831.382 70.8315 831.382 110.283C831.382 149.429 822.528 186.541 806.681 219.789H754.267C774.208 187.543 785.693 149.683 785.693 109.184C785.693 69.2787 774.542 31.9344 755.137 0ZM568.691 191.405C614.825 191.405 652.224 154.627 652.224 109.259C652.224 63.8915 614.825 27.1138 568.691 27.1138C522.556 27.1138 485.157 63.8915 485.157 109.259C485.157 154.627 522.556 191.405 568.691 191.405Z" fill="white" fill-opacity="0.12"/>
<path fill-rule="evenodd" clip-rule="evenodd" d="M152.988 0L130.12 47.8606C129.827 48.4755 130.087 49.213 130.701 49.5078L132.1 50.1792L139.389 47.1757L141.624 54.7504L144.261 56.0162L151.55 53.0127L153.786 60.5875L156.423 61.8533L163.712 58.8498L165.947 66.4246L168.585 67.6905L175.874 64.687L178.109 72.2617L178.951 72.6659C179.566 72.9608 180.302 72.7014 180.596 72.0865L213.945 2.28706C214.239 1.67219 213.979 0.934715 213.365 0.639856L212.031 0H152.988Z" fill="#ECFFFF"/>
<path d="M167.431 45.154L171.65 42.667L172.309 45.5617L167.431 45.154Z" fill="#E3609A"/>
<rect width="2.96673" height="31.9004" transform="matrix(0.224673 0.975316 -0.973417 0.225253 202.67 35.4924)" fill="#E3609A"/>
<rect width="45.8484" height="3.53181" rx="0.352531" transform="matrix(0.901539 0.432698 -0.431107 0.902301 157.738 1.92041)" fill="#18E7E7"/>
<rect width="19.4856" height="3.35522" rx="0.352531" transform="matrix(0.901539 0.432698 -0.431107 0.902301 152.865 12.1179)" fill="#18E7E7"/>
<rect width="19.4856" height="3.35522" rx="0.352531" transform="matrix(0.901539 0.432698 -0.431107 0.902301 175.202 22.8386)" fill="#18E7E7"/>
<rect width="19.4856" height="3.35522" rx="0.352531" transform="matrix(0.901539 0.432698 -0.431107 0.902301 146.699 25.0244)" fill="#18E7E7"/>
<path fill-rule="evenodd" clip-rule="evenodd" d="M171.694 0L202.104 14.5955C202.279 14.6797 202.49 14.6056 202.573 14.4299L203.792 11.8793C203.876 11.7037 203.802 11.493 203.626 11.4087L179.856 0H171.694Z" fill="#18E7E7"/>
<path d="M91.1254 214.773L115.662 166.027C116.403 164.556 118.191 163.957 119.668 164.685L175.316 192.115C176.799 192.846 177.411 194.64 176.684 196.125L165.348 219.269C164.831 220.324 163.747 220.98 162.574 220.949L93.7254 219.121C91.5272 219.062 90.1367 216.737 91.1254 214.773Z" fill="#FFBC00"/>
<path d="M144.321 200.687C141.533 206.297 134.734 208.58 129.136 205.786C123.538 202.992 121.26 196.178 124.048 190.567C126.836 184.956 133.635 182.673 139.233 185.468C144.831 188.262 147.109 195.076 144.321 200.687ZM127.45 192.265C125.598 195.993 127.111 200.52 130.83 202.376C134.55 204.233 139.066 202.716 140.919 198.989C142.771 195.261 141.258 190.734 137.539 188.877C133.819 187.021 129.303 188.538 127.45 192.265Z" fill="white"/>
<path d="M115 208.881C115 208.881 120 198.357 130.5 202.366C141 206.376 136 218.403 136 218.403L132.5 216.398C132.5 216.398 135.5 208.881 129 205.874C122.5 202.868 118.5 210.385 118.5 210.385L115 208.881Z" fill="white"/>
<defs>
<linearGradient id="paint0_linear_293_119" x1="-1.96457e-05" y1="23.0522" x2="1160.64" y2="321.234" gradientUnits="userSpaceOnUse">
<stop stop-color="#875DE2"/>
<stop offset="0.925" stop-color="#EE722F" stop-opacity="0.97"/>
<stop offset="1" stop-color="#F77420"/>
</linearGradient>
</defs>
</svg>
