<svg width="1190" height="221" viewBox="0 0 1190 221" fill="none" xmlns="http://www.w3.org/2000/svg">
<rect width="1190" height="219" fill="url(#paint0_linear_291_55)"/>
<path d="M399.52 11.8297C387.469 6.93193 368 0 368 0L1190 8.06569V221C1190 221 1147.57 217.522 1120.32 215.623C1056.03 211.141 1012.51 226.515 955.261 207.019C902.413 189.023 903.938 154.342 854.896 132.277C758.826 89.0553 660.142 147.71 557.118 111.844C481.239 85.4287 472.492 41.4876 399.52 11.8297Z" fill="#E7BA91" fill-opacity="0.43"/>
<path d="M465.769 14.4622C458.071 8.72877 445.627 0 445.627 0L1190 5.35636V194.971C1190 194.971 1155.83 195.298 1133.95 194.971C1071.8 194.045 1031.97 201.704 975.446 185.866C913.44 168.492 970.191 128.017 853.719 109.27C737.246 90.5224 654.927 130.159 567.354 109.27C479.781 88.3799 511.704 48.6709 465.769 14.4622Z" fill="#F4BE8B"/>
<rect x="1110.18" y="108" width="71.8468" height="94.299" rx="5.61303" transform="rotate(15.4898 1110.18 108)" fill="#9086E0"/>
<rect x="1119.92" y="110.698" width="8.98085" height="94.299" transform="rotate(15.4898 1119.92 110.698)" fill="#7A6FD3"/>
<rect x="1158.87" y="121.491" width="7.85825" height="24.6973" transform="rotate(15.4898 1158.87 121.491)" fill="white"/>
<path d="M1157.26 142.014L1160.12 148.05L1151.69 145.714L1157.26 142.014Z" fill="#9086E0"/>
<path fill-rule="evenodd" clip-rule="evenodd" d="M3 191.313L19.2972 204.391C20.1586 205.083 21.4174 204.945 22.1088 204.083L41.5111 179.906C42.2024 179.044 42.0645 177.786 41.203 177.094L15.4657 156.44C14.6042 155.749 13.3454 155.887 12.6541 156.748L3 168.778V191.313Z" fill="#FFBC00"/>
<path d="M26.2673 180.974C24.1933 183.559 20.4169 183.972 17.8325 181.898C15.2481 179.825 14.8343 176.048 16.9083 173.464C18.9823 170.879 22.7587 170.465 25.3431 172.539C27.9275 174.613 28.3413 178.39 26.2673 180.974ZM18.4788 174.724C17.1009 176.441 17.3758 178.95 19.0928 180.328C20.8099 181.706 23.3189 181.431 24.6968 179.714C26.0747 177.997 25.7998 175.488 24.0828 174.11C22.3657 172.732 19.8567 173.007 18.4788 174.724Z" fill="white"/>
<path d="M19.3825 189.553C19.8939 188.916 20.2698 188.181 20.487 187.394C20.7043 186.606 20.7584 185.782 20.646 184.973C20.5336 184.164 20.2571 183.386 19.8335 182.687C19.4098 181.988 18.848 181.384 18.1823 180.91C17.5166 180.436 16.7612 180.103 15.9624 179.932C15.1635 179.76 14.338 179.754 13.5366 179.913C12.7351 180.071 11.9745 180.392 11.3014 180.855C10.6284 181.319 10.057 181.915 9.62237 182.606L11.3275 183.678C11.6163 183.218 11.9959 182.822 12.4431 182.514C12.8902 182.207 13.3956 181.993 13.928 181.888C14.4605 181.782 15.009 181.787 15.5397 181.901C16.0705 182.014 16.5724 182.236 17.0146 182.55C17.4569 182.865 17.8302 183.267 18.1116 183.731C18.3931 184.195 18.5768 184.712 18.6515 185.25C18.7261 185.787 18.6902 186.335 18.5458 186.858C18.4015 187.381 18.1518 187.87 17.812 188.293L19.3825 189.553Z" fill="white"/>
<path fill-rule="evenodd" clip-rule="evenodd" d="M321.954 167.821L211.939 128L179 219H303.429L321.954 167.821Z" fill="#E5F1FF"/>
<path fill-rule="evenodd" clip-rule="evenodd" d="M238.267 137.53L211.939 128L179 219H208.778L238.267 137.53Z" fill="#43658B"/>
<g filter="url(#filter0_d_291_55)">
<path fill-rule="evenodd" clip-rule="evenodd" d="M259.998 162.36C256.882 161.232 253.442 162.844 252.314 165.96L238.36 204.512C237.232 207.628 238.844 211.068 241.96 212.196L246.371 213.792H277.54L289.926 179.574C291.054 176.458 289.442 173.018 286.327 171.89L259.998 162.36Z" fill="white"/>
</g>
<path fill-rule="evenodd" clip-rule="evenodd" d="M268.111 177.92C268.113 176.577 266.433 175.969 265.575 177.002C264.982 177.716 263.878 177.687 263.324 176.943L263.119 176.669C262.359 175.649 260.738 176.176 260.723 177.448C260.712 178.361 259.806 178.992 258.946 178.685L258.735 178.61C257.542 178.184 256.518 179.557 257.265 180.578C257.804 181.315 257.424 182.362 256.539 182.584C255.311 182.89 255.22 184.601 256.408 185.037L256.619 185.114C257.476 185.429 257.769 186.493 257.192 187.202C256.39 188.189 257.298 189.631 258.535 189.335L258.867 189.255C259.769 189.038 260.636 189.723 260.635 190.65C260.633 191.993 262.313 192.601 263.17 191.568C263.763 190.855 264.867 190.883 265.422 191.627L265.626 191.901C266.387 192.921 268.008 192.394 268.023 191.122C268.033 190.209 268.94 189.578 269.8 189.885L270.011 189.96C271.203 190.386 272.228 189.014 271.48 187.992C270.942 187.255 271.321 186.208 272.206 185.987C273.434 185.68 273.526 183.969 272.337 183.533L272.127 183.456C271.27 183.142 270.977 182.077 271.553 181.368C272.356 180.381 271.448 178.939 270.211 179.236L269.878 179.315C268.976 179.532 268.109 178.847 268.111 177.92ZM263.011 188.046C265.089 188.798 267.382 187.724 268.134 185.646C268.886 183.569 267.811 181.276 265.734 180.524C263.657 179.772 261.363 180.846 260.612 182.924C259.86 185.001 260.934 187.294 263.011 188.046Z" fill="#56CCB5"/>
<rect x="192.332" y="192.515" width="14.6058" height="15.6912" transform="rotate(-5.39334 192.332 192.515)" stroke="#324F6E" stroke-width="5"/>
<path fill-rule="evenodd" clip-rule="evenodd" d="M217.941 130.418C216.541 131.182 215.222 132.105 214.012 133.172C211.577 135.322 209.647 138 208.367 141.004C207.087 144.009 206.492 147.26 206.627 150.512C206.762 153.764 207.623 156.93 209.145 159.771C210.667 162.612 212.81 165.053 215.412 166.909C218.013 168.764 221.004 169.985 224.158 170.48C224.722 170.568 225.289 170.633 225.857 170.674L230.441 159.234C228.987 159.675 227.459 159.783 225.968 159.549C224.44 159.31 222.992 158.719 221.732 157.82C220.472 156.921 219.434 155.739 218.697 154.364C217.96 152.988 217.543 151.454 217.478 149.879C217.412 148.305 217.701 146.73 218.32 145.275C218.94 143.82 219.875 142.523 221.054 141.482C222.234 140.441 223.626 139.684 225.127 139.269C226.627 138.853 228.195 138.789 229.713 139.082L230.599 134.662L217.941 130.418Z" fill="#324F6E"/>
<path fill-rule="evenodd" clip-rule="evenodd" d="M219.466 150.875C219.468 149.532 217.788 148.924 216.931 149.957C216.338 150.671 215.234 150.642 214.679 149.898L214.475 149.624C213.714 148.604 212.093 149.131 212.078 150.403C212.068 151.316 211.161 151.947 210.301 151.64L210.09 151.565C208.898 151.139 207.874 152.512 208.621 153.533C209.159 154.27 208.78 155.317 207.895 155.539C206.667 155.846 206.575 157.556 207.764 157.992L207.974 158.069C208.831 158.384 209.124 159.449 208.548 160.157C207.745 161.144 208.653 162.587 209.89 162.29L210.223 162.21C211.125 161.993 211.992 162.678 211.99 163.605C211.988 164.948 213.668 165.556 214.526 164.523C215.119 163.81 216.223 163.839 216.777 164.582L216.982 164.856C217.742 165.876 219.363 165.349 219.378 164.077C219.389 163.164 220.295 162.533 221.155 162.84L221.366 162.916C222.559 163.341 223.583 161.969 222.836 160.947C222.297 160.21 222.677 159.163 223.562 158.942C224.79 158.635 224.881 156.924 223.693 156.488L223.482 156.411C222.625 156.097 222.333 155.032 222.909 154.323C223.711 153.336 222.803 151.894 221.566 152.191L221.234 152.27C220.332 152.487 219.465 151.802 219.466 150.875ZM214.367 161.001C216.444 161.753 218.738 160.679 219.489 158.602C220.241 156.524 219.167 154.231 217.09 153.479C215.012 152.727 212.719 153.801 211.967 155.879C211.215 157.956 212.29 160.249 214.367 161.001Z" fill="#56CCB5"/>
<rect x="1065" y="127.719" width="8" height="69" transform="rotate(45.9288 1065 127.719)" fill="#66A0FF"/>
<rect x="1061.41" y="131.196" width="8" height="4" transform="rotate(45.9288 1061.41 131.196)" fill="black"/>
<path d="M1009.55 186.996L1015.12 175.598L1020.94 181.424L1009.55 186.996Z" fill="#D9D9D9"/>
<defs>
<filter id="filter0_d_291_55" x="238" y="162" width="56.2861" height="56.7922" filterUnits="userSpaceOnUse" color-interpolation-filters="sRGB">
<feFlood flood-opacity="0" result="BackgroundImageFix"/>
<feColorMatrix in="SourceAlpha" type="matrix" values="0 0 0 0 0 0 0 0 0 0 0 0 0 0 0 0 0 0 127 0" result="hardAlpha"/>
<feOffset dx="4" dy="5"/>
<feComposite in2="hardAlpha" operator="out"/>
<feColorMatrix type="matrix" values="0 0 0 0 0 0 0 0 0 0 0 0 0 0 0 0 0 0 0.2 0"/>
<feBlend mode="normal" in2="BackgroundImageFix" result="effect1_dropShadow_291_55"/>
<feBlend mode="normal" in="SourceGraphic" in2="effect1_dropShadow_291_55" result="shape"/>
</filter>
<linearGradient id="paint0_linear_291_55" x1="-2.13448e-05" y1="23.0001" x2="945.386" y2="295.921" gradientUnits="userSpaceOnUse">
<stop stop-color="#E67163"/>
<stop offset="1" stop-color="#F3B187"/>
</linearGradient>
</defs>
</svg>
