<svg width="1190" height="241" viewBox="0 0 1190 241" fill="none" xmlns="http://www.w3.org/2000/svg">
<rect width="1190" height="219" rx="9" fill="url(#paint0_linear_119_2)"/>
<path fill-rule="evenodd" clip-rule="evenodd" d="M103.784 161.385C101.9 160.493 99.6488 161.296 98.7561 163.18L73.702 216.05C73.3358 216.823 73.255 217.657 73.4171 218.434L149.762 218.611L161.859 193.083C162.752 191.199 161.949 188.949 160.065 188.056L103.784 161.385Z" fill="#FFBC00"/>
<path d="M134.339 201.708C131.661 207.359 124.908 209.77 119.257 207.092C113.605 204.414 111.195 197.661 113.873 192.01C116.551 186.358 123.304 183.948 128.955 186.626C134.607 189.304 137.017 196.056 134.339 201.708ZM117.307 193.637C115.528 197.392 117.129 201.878 120.884 203.657C124.639 205.437 129.125 203.835 130.905 200.08C132.684 196.326 131.082 191.839 127.328 190.06C123.573 188.281 119.087 189.882 117.307 193.637Z" fill="white"/>
<path d="M125.449 220.468C126.109 219.075 126.478 217.561 126.532 216.02C126.587 214.479 126.326 212.943 125.766 211.506C125.206 210.07 124.359 208.762 123.275 207.665C122.192 206.567 120.896 205.703 119.467 205.124C118.038 204.545 116.505 204.264 114.964 204.298C113.422 204.333 111.904 204.681 110.502 205.323C109.1 205.965 107.843 206.887 106.81 208.032C105.777 209.176 104.988 210.52 104.493 211.98L108.092 213.201C108.421 212.231 108.945 211.339 109.631 210.578C110.318 209.818 111.152 209.205 112.084 208.779C113.015 208.352 114.024 208.121 115.048 208.098C116.073 208.075 117.091 208.262 118.04 208.646C118.99 209.031 119.851 209.605 120.57 210.335C121.29 211.064 121.853 211.932 122.225 212.887C122.597 213.841 122.771 214.862 122.734 215.886C122.698 216.909 122.453 217.915 122.014 218.841L125.449 220.468Z" fill="white"/>
<path fill-rule="evenodd" clip-rule="evenodd" d="M331.073 0C314.993 33.3702 306 70.6713 306 110.033C306 149.091 314.854 186.119 330.701 219.292H383.589C363.648 187.119 352.163 149.344 352.163 108.937C352.163 69.1221 363.314 31.8622 382.719 0H331.073ZM419.109 0C396.085 30.433 382.464 68.1245 382.464 108.937C382.464 150.386 396.512 188.615 420.192 219.292H469.151C438.504 192.445 419.21 153.384 419.21 109.902C419.21 66.1424 438.751 26.861 469.739 0H419.109ZM667.509 0H718.747C741.772 30.433 755.392 68.1245 755.392 108.937C755.392 150.386 741.344 188.615 717.664 219.292H668.097C698.743 192.445 718.038 153.384 718.038 109.902C718.038 66.1424 698.496 26.861 667.509 0ZM529.847 0H607.401C653.804 15.7591 687.126 59.0124 687.126 109.902C687.126 160.25 654.509 203.124 608.877 219.292H528.371C482.738 203.124 450.122 160.25 450.122 109.902C450.122 59.0124 483.443 15.7591 529.847 0ZM755.137 0H806.309C822.389 33.3702 831.382 70.6713 831.382 110.033C831.382 149.091 822.528 186.119 806.681 219.292H754.267C774.208 187.119 785.693 149.344 785.693 108.937C785.693 69.1221 774.542 31.8622 755.137 0ZM568.691 190.972C614.825 190.972 652.224 154.277 652.224 109.012C652.224 63.7471 614.825 27.0525 568.691 27.0525C522.557 27.0525 485.157 63.7471 485.157 109.012C485.157 154.277 522.557 190.972 568.691 190.972Z" fill="white" fill-opacity="0.12"/>
<path fill-rule="evenodd" clip-rule="evenodd" d="M152.987 0L130.121 47.7504C129.827 48.365 130.087 49.1018 130.701 49.3961L132.099 50.0656L139.389 47.0689L141.624 54.6266L144.261 55.8895L151.55 52.8928L153.786 60.4505L156.423 61.7134L163.712 58.7167L165.947 66.2744L168.585 67.5373L175.874 64.5406L178.109 72.0983L178.951 72.5014C179.566 72.7957 180.302 72.5361 180.597 71.9215L213.944 2.28393C214.238 1.66932 213.979 0.932498 213.364 0.638184L212.031 0H152.987Z" fill="#ECFFFF"/>
<path d="M167.431 45.0518L171.65 42.5705L172.308 45.4586L167.431 45.0518Z" fill="#E3609A"/>
<rect x="202.669" y="35.4124" width="2.9629" height="31.8693" transform="rotate(76.9993 202.669 35.4124)" fill="#E3609A"/>
<rect x="157.737" y="1.91602" width="45.829" height="3.52531" rx="0.352531" transform="rotate(25.5883 157.737 1.91602)" fill="#18E7E7"/>
<rect x="152.865" y="12.0906" width="19.4773" height="3.34904" rx="0.352531" transform="rotate(25.5883 152.865 12.0906)" fill="#18E7E7"/>
<rect x="175.201" y="22.7869" width="19.4773" height="3.34904" rx="0.352531" transform="rotate(25.5883 175.201 22.7869)" fill="#18E7E7"/>
<rect x="146.699" y="24.9678" width="19.4773" height="3.34904" rx="0.352531" transform="rotate(25.5883 146.699 24.9678)" fill="#18E7E7"/>
<path fill-rule="evenodd" clip-rule="evenodd" d="M171.694 0L202.103 14.5623C202.279 14.6464 202.49 14.5722 202.574 14.3966L203.792 11.853C203.876 11.6774 203.802 11.4668 203.626 11.3828L179.856 0H171.694Z" fill="#18E7E7"/>
<defs>
<linearGradient id="paint0_linear_119_2" x1="-1.96457e-05" y1="23.0001" x2="1160.32" y2="321.774" gradientUnits="userSpaceOnUse">
<stop stop-color="#875DE2"/>
<stop offset="0.925" stop-color="#EE722F" stop-opacity="0.97"/>
<stop offset="1" stop-color="#F77420"/>
</linearGradient>
</defs>
</svg>
