<svg width="1190" height="226" viewBox="0 0 1190 226" fill="none" xmlns="http://www.w3.org/2000/svg">
<rect y="2" width="1190" height="219" rx="9" fill="url(#paint0_linear_109_2)"/>
<path d="M557.118 111.844C481.239 85.4287 472.492 41.4876 399.52 11.8297C393.619 9.43131 395.297 0.267849 401.667 0.330349L1181.09 7.97825C1186.02 8.02668 1190 12.0417 1190 16.9778V211.232C1190 216.493 1185.53 220.634 1180.28 220.212C1166.14 219.073 1139.48 216.958 1120.32 215.623C1056.03 211.141 1012.51 226.515 955.261 207.019C902.413 189.023 903.938 154.342 854.896 132.277C758.826 89.0553 660.142 147.71 557.118 111.844Z" fill="#E7BA91" fill-opacity="0.43"/>
<path d="M567.354 109.27C479.781 88.3799 511.704 48.6709 465.769 14.4622C459.686 9.9321 462.839 0.123853 470.424 0.178428L1181.06 5.29206C1186.01 5.32764 1190 9.34652 1190 14.2918V186.057C1190 190.994 1186.03 195.008 1181.09 195.039C1169.47 195.113 1148.86 195.194 1133.95 194.971C1071.8 194.045 1031.97 201.704 975.446 185.866C913.44 168.492 970.191 128.017 853.719 109.27C737.246 90.5224 654.927 130.159 567.354 109.27Z" fill="#F4BE8B"/>
<rect x="1110.18" y="110" width="71.8468" height="94.299" rx="5.61303" transform="rotate(15.4898 1110.18 110)" fill="#9086E0"/>
<rect x="1119.92" y="112.698" width="8.98085" height="94.299" transform="rotate(15.4898 1119.92 112.698)" fill="#7A6FD3"/>
<rect x="1158.87" y="123.491" width="7.85825" height="24.6973" transform="rotate(15.4898 1158.87 123.491)" fill="white"/>
<path d="M1157.26 144.014L1160.12 150.05L1151.69 147.714L1157.26 144.014Z" fill="#9086E0"/>
<path fill-rule="evenodd" clip-rule="evenodd" d="M3 193.313L19.2972 206.391C20.1586 207.083 21.4174 206.945 22.1088 206.083L41.5111 181.906C42.2024 181.044 42.0645 179.786 41.203 179.094L15.4657 158.44C14.6042 157.749 13.3454 157.887 12.6541 158.748L3 170.778V193.313Z" fill="#FFBC00"/>
<path d="M26.2673 182.974C24.1933 185.559 20.4169 185.972 17.8325 183.898C15.2481 181.825 14.8343 178.048 16.9083 175.464C18.9823 172.879 22.7587 172.465 25.3431 174.539C27.9275 176.613 28.3413 180.39 26.2673 182.974ZM18.4788 176.724C17.1009 178.441 17.3758 180.95 19.0928 182.328C20.8099 183.706 23.3189 183.431 24.6968 181.714C26.0747 179.997 25.7998 177.488 24.0828 176.11C22.3657 174.732 19.8567 175.007 18.4788 176.724Z" fill="white"/>
<path d="M19.3825 191.553C19.8939 190.916 20.2698 190.181 20.487 189.394C20.7043 188.606 20.7584 187.782 20.646 186.973C20.5336 186.164 20.2571 185.386 19.8335 184.687C19.4098 183.988 18.848 183.384 18.1823 182.91C17.5166 182.436 16.7612 182.103 15.9624 181.932C15.1635 181.76 14.338 181.754 13.5366 181.913C12.7351 182.071 11.9745 182.392 11.3014 182.855C10.6284 183.319 10.057 183.915 9.62237 184.606L11.3275 185.678C11.6163 185.218 11.9959 184.822 12.4431 184.514C12.8902 184.207 13.3956 183.993 13.928 183.888C14.4605 183.782 15.009 183.787 15.5397 183.901C16.0705 184.014 16.5724 184.236 17.0146 184.55C17.4569 184.865 17.8302 185.267 18.1116 185.731C18.3931 186.195 18.5768 186.712 18.6515 187.25C18.7261 187.787 18.6902 188.335 18.5458 188.858C18.4015 189.381 18.1518 189.87 17.812 190.293L19.3825 191.553Z" fill="white"/>
<path fill-rule="evenodd" clip-rule="evenodd" d="M321.954 169.821L211.939 130L179 221H303.429L321.954 169.821Z" fill="#E5F1FF"/>
<path fill-rule="evenodd" clip-rule="evenodd" d="M238.267 139.53L211.939 130L179 221H208.778L238.267 139.53Z" fill="#43658B"/>
<g filter="url(#filter0_d_109_2)">
<path fill-rule="evenodd" clip-rule="evenodd" d="M260.607 169.36C257.491 168.232 254.051 169.844 252.923 172.96L238.968 211.512C237.84 214.628 239.452 218.068 242.568 219.196L246.979 220.792H278.149L290.535 186.574C291.663 183.458 290.051 180.018 286.935 178.89L260.607 169.36Z" fill="white"/>
</g>
<path fill-rule="evenodd" clip-rule="evenodd" d="M268.719 184.92C268.721 183.577 267.041 182.969 266.183 184.002C265.591 184.716 264.486 184.687 263.932 183.943L263.727 183.669C262.967 182.649 261.346 183.176 261.331 184.448C261.32 185.361 260.414 185.992 259.554 185.685L259.343 185.61C258.151 185.184 257.126 186.557 257.873 187.578C258.412 188.315 258.033 189.362 257.147 189.584C255.919 189.89 255.828 191.601 257.016 192.037L257.227 192.114C258.084 192.429 258.377 193.493 257.801 194.202C256.998 195.189 257.906 196.631 259.143 196.335L259.475 196.255C260.377 196.038 261.244 196.723 261.243 197.65C261.241 198.993 262.921 199.601 263.779 198.568C264.371 197.855 265.476 197.883 266.03 198.627L266.234 198.901C266.995 199.921 268.616 199.394 268.631 198.122C268.642 197.209 269.548 196.578 270.408 196.885L270.619 196.96C271.811 197.386 272.836 196.014 272.089 194.992C271.55 194.255 271.929 193.208 272.814 192.987C274.042 192.68 274.134 190.969 272.946 190.533L272.735 190.456C271.878 190.142 271.585 189.077 272.161 188.368C272.964 187.381 272.056 185.939 270.819 186.236L270.486 186.315C269.584 186.532 268.717 185.847 268.719 184.92ZM263.62 195.046C265.697 195.798 267.99 194.724 268.742 192.646C269.494 190.569 268.42 188.276 266.342 187.524C264.265 186.772 261.972 187.846 261.22 189.924C260.468 192.001 261.542 194.294 263.62 195.046Z" fill="#56CCB5"/>
<rect x="192.332" y="194.515" width="14.6058" height="15.6912" transform="rotate(-5.39334 192.332 194.515)" stroke="#324F6E" stroke-width="5"/>
<path fill-rule="evenodd" clip-rule="evenodd" d="M217.941 132.418C216.541 133.182 215.222 134.105 214.012 135.172C211.577 137.322 209.647 140 208.367 143.004C207.087 146.009 206.492 149.26 206.627 152.512C206.762 155.764 207.623 158.93 209.145 161.771C210.667 164.612 212.81 167.053 215.412 168.909C218.013 170.764 221.004 171.985 224.158 172.48C224.722 172.568 225.289 172.633 225.857 172.674L230.441 161.234C228.987 161.675 227.459 161.783 225.968 161.549C224.44 161.31 222.992 160.719 221.732 159.82C220.472 158.921 219.434 157.739 218.697 156.364C217.96 154.988 217.543 153.454 217.478 151.879C217.412 150.305 217.701 148.73 218.32 147.275C218.94 145.82 219.875 144.523 221.054 143.482C222.234 142.441 223.626 141.684 225.127 141.269C226.627 140.853 228.195 140.789 229.713 141.082L230.599 136.662L217.941 132.418Z" fill="#324F6E"/>
<path fill-rule="evenodd" clip-rule="evenodd" d="M219.466 152.875C219.468 151.532 217.788 150.924 216.93 151.957C216.338 152.671 215.233 152.642 214.679 151.898L214.475 151.624C213.714 150.604 212.093 151.131 212.078 152.403C212.067 153.316 211.161 153.947 210.301 153.64L210.09 153.565C208.898 153.139 207.873 154.512 208.62 155.533C209.159 156.27 208.78 157.317 207.895 157.539C206.666 157.846 206.575 159.556 207.763 159.992L207.974 160.069C208.831 160.384 209.124 161.449 208.548 162.157C207.745 163.144 208.653 164.587 209.89 164.29L210.222 164.21C211.125 163.993 211.991 164.678 211.99 165.605C211.988 166.948 213.668 167.556 214.526 166.523C215.118 165.81 216.223 165.839 216.777 166.582L216.981 166.856C217.742 167.876 219.363 167.349 219.378 166.077C219.389 165.164 220.295 164.533 221.155 164.84L221.366 164.916C222.558 165.341 223.583 163.969 222.836 162.947C222.297 162.21 222.676 161.163 223.561 160.942C224.789 160.635 224.881 158.924 223.693 158.488L223.482 158.411C222.625 158.097 222.332 157.032 222.908 156.323C223.711 155.336 222.803 153.894 221.566 154.191L221.233 154.27C220.331 154.487 219.465 153.802 219.466 152.875ZM214.367 163.001C216.444 163.753 218.737 162.679 219.489 160.602C220.241 158.524 219.167 156.231 217.089 155.479C215.012 154.727 212.719 155.801 211.967 157.879C211.215 159.956 212.289 162.249 214.367 163.001Z" fill="#56CCB5"/>
<rect x="1065" y="129.719" width="8" height="69" transform="rotate(45.9288 1065 129.719)" fill="#66A0FF"/>
<rect x="1061.41" y="133.196" width="8" height="4" transform="rotate(45.9288 1061.41 133.196)" fill="black"/>
<path d="M1009.55 188.996L1015.12 177.598L1020.94 183.424L1009.55 188.996Z" fill="#D9D9D9"/>
<defs>
<filter id="filter0_d_109_2" x="238.608" y="169" width="56.2861" height="56.7922" filterUnits="userSpaceOnUse" color-interpolation-filters="sRGB">
<feFlood flood-opacity="0" result="BackgroundImageFix"/>
<feColorMatrix in="SourceAlpha" type="matrix" values="0 0 0 0 0 0 0 0 0 0 0 0 0 0 0 0 0 0 127 0" result="hardAlpha"/>
<feOffset dx="4" dy="5"/>
<feComposite in2="hardAlpha" operator="out"/>
<feColorMatrix type="matrix" values="0 0 0 0 0 0 0 0 0 0 0 0 0 0 0 0 0 0 0.2 0"/>
<feBlend mode="normal" in2="BackgroundImageFix" result="effect1_dropShadow_109_2"/>
<feBlend mode="normal" in="SourceGraphic" in2="effect1_dropShadow_109_2" result="shape"/>
</filter>
<linearGradient id="paint0_linear_109_2" x1="-2.13448e-05" y1="25.0001" x2="945.386" y2="297.921" gradientUnits="userSpaceOnUse">
<stop stop-color="#E67163"/>
<stop offset="1" stop-color="#F3B187"/>
</linearGradient>
</defs>
</svg>
