<svg width="1190" height="221" viewBox="0 0 1190 221" fill="none" xmlns="http://www.w3.org/2000/svg">
<rect width="1190" height="219" rx="9" fill="url(#paint0_linear_122_8)"/>
<path fill-rule="evenodd" clip-rule="evenodd" d="M331.073 0C314.993 33.3702 306 70.6713 306 110.033C306 149.091 314.854 186.119 330.701 219.292H383.589C363.648 187.119 352.163 149.344 352.163 108.937C352.163 69.1221 363.314 31.8622 382.719 0H331.073ZM419.109 0C396.085 30.433 382.464 68.1245 382.464 108.937C382.464 150.386 396.512 188.615 420.192 219.292H469.151C438.504 192.445 419.21 153.384 419.21 109.902C419.21 66.1424 438.751 26.861 469.739 0H419.109ZM667.509 0H718.747C741.772 30.433 755.392 68.1245 755.392 108.937C755.392 150.386 741.344 188.615 717.664 219.292H668.097C698.743 192.445 718.038 153.384 718.038 109.902C718.038 66.1424 698.496 26.861 667.509 0ZM529.847 0H607.401C653.804 15.7591 687.126 59.0124 687.126 109.902C687.126 160.25 654.509 203.124 608.877 219.292H528.371C482.738 203.124 450.122 160.25 450.122 109.902C450.122 59.0124 483.443 15.7591 529.847 0ZM755.137 0H806.309C822.389 33.3702 831.382 70.6713 831.382 110.033C831.382 149.091 822.528 186.119 806.681 219.292H754.267C774.208 187.119 785.693 149.344 785.693 108.937C785.693 69.1221 774.542 31.8622 755.137 0ZM568.691 190.972C614.825 190.972 652.224 154.277 652.224 109.012C652.224 63.7471 614.825 27.0525 568.691 27.0525C522.557 27.0525 485.157 63.7471 485.157 109.012C485.157 154.277 522.557 190.972 568.691 190.972Z" fill="white" fill-opacity="0.12"/>
<path fill-rule="evenodd" clip-rule="evenodd" d="M152.987 0L130.121 47.7504C129.827 48.365 130.087 49.1018 130.701 49.3961L132.099 50.0656L139.389 47.0689L141.624 54.6266L144.261 55.8895L151.55 52.8928L153.786 60.4505L156.423 61.7134L163.712 58.7167L165.947 66.2744L168.585 67.5373L175.874 64.5406L178.109 72.0983L178.951 72.5014C179.566 72.7957 180.302 72.5361 180.597 71.9215L213.944 2.28393C214.238 1.66932 213.979 0.932498 213.364 0.638184L212.031 0H152.987Z" fill="#ECFFFF"/>
<path d="M167.431 45.0518L171.65 42.5705L172.308 45.4586L167.431 45.0518Z" fill="#E3609A"/>
<rect x="202.669" y="35.4124" width="2.9629" height="31.8693" transform="rotate(76.9993 202.669 35.4124)" fill="#E3609A"/>
<rect x="157.737" y="1.91602" width="45.829" height="3.52531" rx="0.352531" transform="rotate(25.5883 157.737 1.91602)" fill="#18E7E7"/>
<rect x="152.865" y="12.0906" width="19.4773" height="3.34904" rx="0.352531" transform="rotate(25.5883 152.865 12.0906)" fill="#18E7E7"/>
<rect x="175.201" y="22.7869" width="19.4773" height="3.34904" rx="0.352531" transform="rotate(25.5883 175.201 22.7869)" fill="#18E7E7"/>
<rect x="146.699" y="24.9678" width="19.4773" height="3.34904" rx="0.352531" transform="rotate(25.5883 146.699 24.9678)" fill="#18E7E7"/>
<path fill-rule="evenodd" clip-rule="evenodd" d="M171.694 0L202.103 14.5623C202.279 14.6464 202.49 14.5722 202.574 14.3966L203.792 11.853C203.876 11.6774 203.802 11.4668 203.626 11.3828L179.856 0H171.694Z" fill="#18E7E7"/>
<path d="M91.1315 214.275L115.662 165.651C116.403 164.183 118.189 163.585 119.665 164.311L175.31 191.677C176.796 192.408 177.409 194.205 176.679 195.691L165.348 218.772C164.831 219.825 163.748 220.48 162.576 220.449L93.7305 218.625C91.531 218.567 90.1404 216.239 91.1315 214.275Z" fill="#FFBC00"/>
<path d="M144.321 200.233C141.533 205.831 134.734 208.109 129.136 205.321C123.538 202.533 121.26 195.734 124.048 190.136C126.836 184.538 133.635 182.26 139.233 185.048C144.831 187.836 147.109 194.635 144.321 200.233ZM127.45 191.83C125.598 195.55 127.111 200.066 130.83 201.919C134.55 203.771 139.066 202.258 140.919 198.539C142.771 194.819 141.258 190.303 137.539 188.45C133.819 186.598 129.303 188.111 127.45 191.83Z" fill="white"/>
<path d="M115 208.409C115 208.409 120 197.909 130.5 201.909C141 205.909 136 217.909 136 217.909L132.5 215.909C132.5 215.909 135.5 208.409 129 205.409C122.5 202.409 118.5 209.909 118.5 209.909L115 208.409Z" fill="white"/>
<defs>
<linearGradient id="paint0_linear_122_8" x1="-1.96457e-05" y1="23.0001" x2="1160.32" y2="321.774" gradientUnits="userSpaceOnUse">
<stop stop-color="#875DE2"/>
<stop offset="0.925" stop-color="#EE722F" stop-opacity="0.97"/>
<stop offset="1" stop-color="#F77420"/>
</linearGradient>
</defs>
</svg>
